<svg width="40" height="40" viewBox="0 0 40 40" fill="none" xmlns="http://www.w3.org/2000/svg">
<path d="M29.9929 20.2391C29.9943 19.5589 29.9354 18.8799 29.8168 18.2097H20.2083V22.0553H25.7108C25.598 22.6697 25.3594 23.2553 25.0095 23.7768C24.6595 24.2984 24.2053 24.745 23.6745 25.0898V27.5851H26.9571C27.9595 26.6372 28.7477 25.4935 29.2706 24.2281C29.7936 22.9626 30.0397 21.6037 29.9929 20.2391Z" fill="#4285F4"/>
<path d="M20.1861 29.9962C22.668 30.0647 25.0832 29.2025 26.939 27.5856L23.6563 25.0903C22.8658 25.5863 21.9704 25.8992 21.038 26.0054C20.1057 26.1115 19.1609 26.008 18.2755 25.7028C17.39 25.3976 16.5871 24.8987 15.9278 24.2439C15.2684 23.5891 14.7698 22.7957 14.47 21.9238H11.0826V24.4958C11.931 26.1495 13.2315 27.5396 14.839 28.5109C16.4465 29.4822 18.2977 29.9964 20.1861 29.9962Z" fill="#34A853"/>
<path d="M14.4672 21.9153C14.0405 20.6751 14.0405 19.3319 14.4672 18.0917V15.5171H11.0833C10.3709 16.9086 10 18.444 10 20.0008C10 21.5577 10.3709 23.0931 11.0833 24.4846L14.4672 21.9153Z" fill="#FBBC04"/>
<path d="M20.199 13.9542C21.6533 13.931 23.0587 14.4686 24.1126 15.4512L27.0253 12.6C25.1775 10.9026 22.7318 9.97123 20.1996 10.0007C18.3087 9.99969 16.4546 10.5141 14.8447 11.4863C13.2347 12.4586 11.9322 13.8505 11.0826 15.5065L14.4713 18.0784C14.8669 16.8906 15.632 15.8541 16.6593 15.1144C17.6866 14.3747 18.9244 13.969 20.199 13.9542Z" fill="#EA4335"/>
</svg>
